<svg xmlns="http://www.w3.org/2000/svg" xmlns:xlink="http://www.w3.org/1999/xlink" id="Layer_1" x="0px" y="0px" viewBox="0 0 54 52" style="enable-background:new 0 0 54 52;" xml:space="preserve"><style type="text/css">	.st0{fill:#F69321;}	.st1{fill:#21428B;}	.st2{fill:url(#SVGID_1_);}	.st3{fill:url(#SVGID_00000039853174812101005750000012960725263697151142_);}	.st4{fill:url(#SVGID_00000116933630147350055380000015564096486979883169_);}	.st5{fill:url(#SVGID_00000050644378660520192040000004291038861269541765_);}	.st6{fill:#FFFFFF;}</style><path class="st0" d="M26.7,41C37.9,41,47,31.9,47,20.7S37.9,0.4,26.7,0.4S6.4,9.5,6.4,20.7S15.5,41,26.7,41z"></path><path class="st1" d="M26.7,39.9c10.6,0,19.2-8.6,19.2-19.2S37.3,1.6,26.7,1.6S7.6,10.1,7.6,20.7S16.1,39.9,26.7,39.9z"></path><linearGradient id="SVGID_1_" gradientUnits="userSpaceOnUse" x1="30.4676" y1="32.7222" x2="34.303" y2="37.6042" gradientTransform="matrix(1 0 0 -1 0 54)">	<stop offset="0" style="stop-color:#F15B2C"></stop>	<stop offset="0.99" style="stop-color:#F69321"></stop></linearGradient><path class="st2" d="M24.2,16.8h20l-1.7,1.4H22.6L24.2,16.8z"></path><linearGradient id="SVGID_00000111156487404464556630000017806306234703736983_" gradientUnits="userSpaceOnUse" x1="30.0073" y1="33.087" x2="33.8427" y2="37.969" gradientTransform="matrix(1 0 0 -1 0 54)">	<stop offset="0" style="stop-color:#F15B2C"></stop>	<stop offset="0.99" style="stop-color:#F69321"></stop></linearGradient><path style="fill:url(#SVGID_00000111156487404464556630000017806306234703736983_);" d="M22.1,18.8h19.8l-1.7,1.4H20.3L22.1,18.8z"></path><linearGradient id="SVGID_00000011725849544638747880000018378321804174424500_" gradientUnits="userSpaceOnUse" x1="29.5863" y1="33.4193" x2="33.4217" y2="38.2957" gradientTransform="matrix(1 0 0 -1 0 54)">	<stop offset="0" style="stop-color:#F15B2C"></stop>	<stop offset="0.99" style="stop-color:#F69321"></stop></linearGradient><path style="fill:url(#SVGID_00000011725849544638747880000018378321804174424500_);" d="M19.9,20.7h19.8L38,22.1H18.1L19.9,20.7z"></path><linearGradient id="SVGID_00000113312051689841284630000006592299779226084241_" gradientUnits="userSpaceOnUse" x1="29.1832" y1="33.7341" x2="33.0241" y2="38.6105" gradientTransform="matrix(1 0 0 -1 0 54)">	<stop offset="0" style="stop-color:#F15B2C"></stop>	<stop offset="0.99" style="stop-color:#F69321"></stop></linearGradient><path style="fill:url(#SVGID_00000113312051689841284630000006592299779226084241_);" d="M17.8,22.6h19.8l-1.7,1.4H16L17.8,22.6z"></path><path class="st0" d="M24.2,16.8l11.6,7.2h-21L24.2,16.8z"></path><path class="st6" d="M23.6,16.7l-10.2,7.8h8.7l-1.8,1.4H9.6l11.9-9.3H23.6z"></path><path class="st6" d="M0,44.2h1.1v6h2.6v1H0L0,44.2L0,44.2z"></path><path class="st6" d="M10.6,50.9c-0.7,0.4-1.4,0.6-2.1,0.6c-0.1,0-0.1,0-0.2,0c-0.1,0-0.1,0-0.2,0c-0.2,0-0.5-0.1-0.7-0.1 c-0.2-0.1-0.5-0.2-0.7-0.3c-0.6-0.3-1.1-0.8-1.5-1.4c-0.4-0.6-0.5-1.2-0.5-1.9c0-0.1,0-0.2,0-0.3c0-0.1,0-0.2,0.1-0.3 c0-0.2,0.1-0.4,0.2-0.6C5,46.3,5.1,46.2,5.2,46c0.3-0.6,0.8-1.1,1.4-1.4s1.2-0.5,1.9-0.5c0.1,0,0.2,0,0.4,0c0.1,0,0.2,0,0.4,0.1 c0.2,0,0.5,0.1,0.7,0.2s0.5,0.2,0.7,0.3c0.5,0.3,0.9,0.8,1.2,1.4c0.3,0.6,0.4,1.2,0.4,1.8c0,0.2,0,0.5-0.1,0.7 c0,0.2-0.1,0.5-0.2,0.7C11.7,49.9,11.2,50.5,10.6,50.9L10.6,50.9z M10.3,49.6c0.5-0.5,0.7-1.1,0.7-1.8s-0.3-1.3-0.8-1.9 c-0.5-0.5-1.1-0.8-1.8-0.8H8.2C7.6,45.2,7,45.5,6.6,46c-0.4,0.5-0.7,1.1-0.7,1.8c0,0,0,0.1,0,0.1c0,0,0,0.1,0,0.1c0,0,0,0,0,0.1 c0,0,0,0,0,0.1c0,0,0,0,0,0.1c0,0,0,0,0,0.1c0.1,0.6,0.4,1.1,0.9,1.5c0.5,0.4,1,0.6,1.6,0.6C9.2,50.4,9.8,50.1,10.3,49.6L10.3,49.6z "></path><path class="st6" d="M20.4,47.7v0.5c0,0.6-0.1,1.1-0.2,1.6C20,50.3,19.6,50.7,19,51c-0.2,0.1-0.4,0.2-0.7,0.3 c-0.3,0.1-0.5,0.1-0.8,0.2c-0.1,0-0.2,0-0.3,0c-0.1,0-0.2,0-0.3,0h-0.2c-0.6,0-1.2-0.2-1.7-0.4c-0.5-0.3-1-0.6-1.3-1.1 c-0.2-0.3-0.3-0.5-0.4-0.8s-0.2-0.6-0.2-0.9c0-0.1,0-0.2,0-0.2c0-0.1,0-0.1,0-0.2c0-0.7,0.2-1.3,0.5-1.9c0.3-0.6,0.8-1.1,1.5-1.4 c0.2-0.1,0.3-0.2,0.5-0.2c0.2-0.1,0.4-0.1,0.6-0.1c0.1,0,0.2,0,0.3,0c0.1,0,0.2,0,0.3,0c0.5,0,1,0.1,1.5,0.3 c0.5,0.2,0.9,0.5,1.3,0.9L19,45.9c-0.3-0.3-0.5-0.5-0.8-0.6c-0.3-0.1-0.6-0.2-1-0.2c-0.1,0-0.2,0-0.3,0c-0.1,0-0.2,0-0.3,0.1 c0,0-0.1,0-0.1,0c0,0-0.1,0-0.1,0c-0.6,0.2-1.1,0.5-1.4,1c-0.3,0.5-0.5,1-0.5,1.6c0,0,0,0.1,0,0.1c0,0,0,0.1,0,0.1c0,0,0,0,0,0.1 c0,0,0,0,0,0.1c0,0,0,0.1,0,0.1c0,0,0,0.1,0,0.1c0.1,0.7,0.4,1.2,0.9,1.6c0.5,0.4,1.1,0.6,1.7,0.6c0.1,0,0.1,0,0.2,0 c0.1,0,0.1,0,0.2,0c0,0,0.1,0,0.1,0c0,0,0.1,0,0.1,0c0,0,0.1,0,0.1,0c0,0,0.1,0,0.1,0c0.5-0.1,0.8-0.3,1-0.6 c0.2-0.3,0.4-0.7,0.4-1.1v-0.1h-1.7v-1L20.4,47.7L20.4,47.7z"></path><path class="st6" d="M21.8,44.2H23v7.1h-1.2V44.2z"></path><path class="st6" d="M26.4,47.6l-2-3.4h1.2l1,1.7c0,0,0,0.1,0.1,0.1c0,0,0,0.1,0.1,0.1c0,0.1,0.1,0.2,0.1,0.2c0,0.1,0.1,0.2,0.1,0.2 c0-0.1,0.1-0.2,0.1-0.2s0.1-0.2,0.1-0.2c0,0,0-0.1,0.1-0.1c0,0,0-0.1,0.1-0.1l1.1-1.7h1.2l-2.1,3.4l2.2,3.7h-1.3l-1.2-2 c0-0.1-0.1-0.1-0.1-0.2c0-0.1-0.1-0.1-0.1-0.2c0-0.1-0.1-0.1-0.1-0.2c0-0.1-0.1-0.1-0.1-0.2c0,0.1-0.1,0.1-0.1,0.2 c0,0.1-0.1,0.1-0.1,0.2c0,0.1-0.1,0.1-0.1,0.2c0,0.1-0.1,0.1-0.1,0.2l-1.2,2h-1.2L26.4,47.6L26.4,47.6z"></path><path class="st6" d="M36.8,47.5c0-0.1,0-0.2,0-0.2c0,0,0-0.1,0-0.1c0-0.1,0-0.1,0-0.1c0,0,0-0.1,0-0.1c0,0,0-0.1,0-0.1 c0,0.2-0.1,0.3-0.1,0.5c-0.1,0.2-0.1,0.3-0.2,0.5l-1.8,3.8l-1.9-3.8c-0.1-0.2-0.1-0.3-0.2-0.5c-0.1-0.2-0.1-0.3-0.2-0.5 c0,0.1,0,0.2,0,0.3c0,0.1,0,0.2,0,0.3c0,0.1,0,0.1,0,0.2c0,0.1,0,0.1,0,0.2l-0.8,3.5h-1.1l1.7-7.4l2.1,4.5c0,0.1,0.1,0.2,0.1,0.2 c0,0.1,0.1,0.2,0.1,0.2c0,0,0,0.1,0,0.1c0,0,0,0.1,0,0.1c0,0,0,0.1,0,0.1c0,0,0,0.1,0,0.1c0-0.1,0-0.1,0.1-0.2c0-0.1,0-0.1,0.1-0.2 c0,0,0-0.1,0-0.1c0,0,0-0.1,0-0.1c0-0.1,0.1-0.2,0.1-0.2c0-0.1,0.1-0.2,0.1-0.2l2-4.5l1.7,7.4h-1.1l-0.8-3.5 C36.9,47.7,36.8,47.6,36.8,47.5L36.8,47.5z"></path><path class="st6" d="M44.1,49.5h-2.8l-0.8,1.8h-1.2l3.4-7.4l3.4,7.4h-1.2L44.1,49.5L44.1,49.5z M42.6,46.5c0,0.1-0.1,0.3-0.2,0.4 l-0.7,1.6h2L43,46.9c0-0.1-0.1-0.2-0.1-0.3c0-0.1-0.1-0.2-0.1-0.3c0,0,0-0.1,0-0.1c0,0,0-0.1,0-0.1C42.7,46.2,42.7,46.4,42.6,46.5z"></path><path class="st6" d="M47.3,43.9l4.5,4.3c0,0,0.1,0.1,0.1,0.1c0,0,0.1,0.1,0.1,0.1c0,0,0.1,0.1,0.1,0.1c0,0.1,0.1,0.1,0.1,0.2 c0.1,0.1,0.1,0.1,0.2,0.2c0.1,0.1,0.1,0.1,0.2,0.2v-4.9h1.1v7.3l-4.6-4.4c-0.1-0.1-0.3-0.3-0.4-0.4c-0.1-0.1-0.2-0.3-0.3-0.4v4.9 h-1.1V43.9L47.3,43.9z"></path></svg>