<svg xmlns="http://www.w3.org/2000/svg" width="40.558" height="40.558" viewBox="0 0 40.558 40.558">
  <g id="Group_2" data-name="Group 2" transform="translate(-6.446 -0.43)">
    <path id="Path_1" data-name="Path 1" d="M26.725,40.988A20.279,20.279,0,1,0,6.446,20.709,20.279,20.279,0,0,0,26.725,40.988Z" fill="#f69321"/>
    <path id="Path_2" data-name="Path 2" d="M26.725,39.864A19.155,19.155,0,1,0,7.571,20.709,19.155,19.155,0,0,0,26.725,39.864Z" fill="#21428b"/>
    <path id="Path_3" data-name="Path 3" d="M24.22,16.846H44.194L42.468,18.26H22.595Z" fill="#fff"/>
    <path id="Path_4" data-name="Path 4" d="M22.144,18.772H41.933l-1.72,1.414H20.335Z" fill="#fff"/>
    <path id="Path_5" data-name="Path 5" d="M19.945,20.7H39.735l-1.72,1.414H18.142Z" fill="#fff"/>
    <path id="Path_6" data-name="Path 6" d="M17.763,22.64H37.553l-1.72,1.414H15.96Z" fill="#fff"/>
    <path id="Path_7" data-name="Path 7" d="M24.22,16.846l11.64,7.209H14.83Z" fill="#f69321"/>
    <path id="Path_8" data-name="Path 8" d="M23.614,16.673,13.455,24.517h8.717l-1.8,1.425H9.569l11.907-9.268Z" fill="#fff"/>
  </g>
</svg>
